C:\GBW_MyPrograms\KinderuniversiteitApp\Resultaten\Ellis_test_v9\Volwassenen\Volwassenen_v1.mot
version=1
nRows=19
nColumns=29
inDegrees=yes
endheader
                time	         pelvis_tilt	           pelvis_tx	           pelvis_ty	       hip_flexion_l	       hip_flexion_r	        knee_angle_l	        knee_angle_r	       ankle_angle_l	       ankle_angle_r	    lumbar_extension	hamstrings_r/activation	bifemsh_r/activation	glut_max_r/activation	iliopsoas_r/activation	rect_fem_r/activation	  vasti_r/activation	gastroc_r/activation	 soleus_r/activation	tib_ant_r/activation	hamstrings_l/activation	bifemsh_l/activation	glut_max_l/activation	iliopsoas_l/activation	rect_fem_l/activation	  vasti_l/activation	gastroc_l/activation	 soleus_l/activation	tib_ant_l/activation	
          3.00000000	          0.24931560	          3.57024328	          1.07442704	         24.53659369	         -3.26285847	        -28.56169558	        -27.48738527	        -18.58001773	        -24.79457252	         -8.74685578	          0.05000000	          0.05000000	          0.05000001	          0.05000002	          0.77877477	          0.17374773	          0.15778997	          0.19951661	          0.05000001	          0.05000000	          0.05000039	          0.05000001	          0.09101267	          0.13604383	          0.05000000	          0.05000000	          0.05000000	          0.38416323	
          3.02000000	          0.15283864	          3.60120767	          1.07183907	         23.91169281	         -5.53505872	        -29.21818401	        -25.94976597	        -18.65432992	        -26.57817830	         -7.89164260	          0.05000000	          0.05000000	          0.05000000	          0.05000003	          0.58408110	          0.13031080	          0.20846338	          0.15562292	          0.05000000	          0.05000000	          0.05000001	          0.05000000	          0.08056387	          0.10919590	          0.19414550	          0.05000004	          0.14583072	          0.28812242	
          3.04000000	         -0.00409289	          3.63271089	          1.06973683	         22.87515732	         -7.48976748	        -30.39999967	        -24.68775604	        -17.42936465	        -29.11705078	         -6.90084180	          0.05000000	          0.05000001	          0.05000005	          0.05000002	          0.43806083	          0.09773310	          0.17875385	          0.11671719	          0.05000000	          0.05534534	          0.06666667	          0.12288967	          0.06042290	          0.08189693	          0.29216651	          0.05000004	          0.26225062	          0.21609182	
          3.06000000	         -0.23805922	          3.66346037	          1.06887470	         21.46867670	         -9.07016569	        -30.68827141	        -23.71802216	        -16.51833320	        -31.81781715	         -5.90267047	          0.07872773	          0.50755504	          0.05000000	          0.05255598	          0.32854563	          0.07329982	          0.13406539	          0.08753789	          0.05000000	          0.08844720	          0.05000003	          0.18843655	          0.05000000	          0.06142270	          0.31606916	          0.06666662	          0.34587756	          0.16206886	
          3.08000000	         -0.53858082	          3.69199057	          1.06938450	         20.21804767	         -9.87698693	        -30.78294736	        -23.64599395	        -16.23177520	        -32.51704770	         -5.07409830	          0.08285456	          0.62191747	          0.05825435	          0.31312931	          0.24640923	          0.05497487	          0.10054905	          0.06565342	          0.05000010	          0.11008529	          0.05000001	          0.25581248	          0.05000000	          0.05000000	          0.32667896	          0.05000003	          0.36073081	          0.12155165	
          3.10000000	         -0.88516049	          3.71794665	          1.07150208	         19.12550772	         -9.54365100	        -30.68053837	        -24.90195172	        -16.55892676	        -31.97352819	         -4.47669546	          0.07641298	          0.47582030	          0.05000000	          0.37468874	          0.18480693	          0.05000000	          0.10265886	          0.05000004	          0.05000002	          0.11699267	          0.05000001	          0.25687623	          0.05000000	          0.05000002	          0.31658772	          0.05000001	          0.32775291	          0.09116374	
          3.12000000	         -1.25325678	          3.74192499	          1.07502465	         17.99076612	         -8.31454813	        -30.19562243	        -26.93433890	        -17.22026333	        -30.89482542	         -4.06869158	          0.07077725	          0.38763738	          0.05000000	          0.32933985	          0.13860521	          0.05000000	          0.07699415	          0.05000000	          0.05434315	          0.11591962	          0.05000001	          0.22828325	          0.05000000	          0.05000004	          0.27895527	          0.05000002	          0.28451483	          0.06837281	
          3.14000000	         -1.62449282	          3.76459142	          1.07939244	         16.74746451	         -6.59880614	        -29.35701866	        -28.88244965	        -18.01072417	        -29.64321879	         -3.79550557	          0.06260777	          0.40552408	          0.05000000	          0.26483594	          0.10395392	          0.05000000	          0.05774562	          0.05000000	          0.06906532	          0.11288612	          0.05000000	          0.20927766	          0.05000000	          0.05000006	          0.23345208	          0.05000003	          0.25086405	          0.05127961	
          3.16000000	         -1.98695398	          3.78632336	          1.08400085	         15.43392114	         -4.58497242	        -28.30733771	        -30.45405752	        -18.85164093	        -28.33289697	         -3.62962516	          0.05000003	          0.46436726	          0.05000000	          0.20934971	          0.07796547	          0.05000000	          0.05000000	          0.05000000	          0.10777401	          0.11194341	          0.05000000	          0.19880780	          0.05000000	          0.05000015	          0.19788765	          0.06060215	          0.22893606	          0.05000000	
          3.18000000	         -2.33289585	          3.80729827	          1.08836968	         14.09625061	         -2.30025204	        -27.16047356	        -31.73202225	        -19.72885342	        -27.11130417	         -3.56209988	          0.05000000	          0.51576824	          0.05000000	          0.17232601	          0.05847417	          0.05000000	          0.05000000	          0.05000000	          0.15228785	          0.09675866	          0.05000000	          0.19467018	          0.05000000	          0.09996979	          0.17546149	          0.08975800	          0.21442282	          0.05000000	
          3.20000000	         -2.65709751	          3.82760585	          1.09220390	         12.76114586	          0.28392977	        -25.97685895	        -32.94928776	        -20.65081274	        -26.00597053	         -3.59136879	          0.05000000	          0.53949493	          0.05000000	          0.14019931	          0.05000081	          0.05000000	          0.05000000	          0.05000000	          0.19163369	          0.08363778	          0.05000000	          0.18729662	          0.05000000	          0.18463043	          0.16183565	          0.11815039	          0.20423590	          0.05000000	
          3.22000000	         -2.95709384	          3.84736695	          1.09534587	         11.42868688	          3.15418181	        -24.78327642	        -34.23623814	        -21.57308392	        -24.98125957	         -3.70908946	          0.05000000	          0.54655494	          0.05000000	          0.12164425	          0.06415393	          0.05000000	          0.05000000	          0.05000000	          0.22690667	          0.06914914	          0.05000000	          0.17765051	          0.05000000	          0.24559293	          0.15255725	          0.14087860	          0.19778799	          0.05000000	
          3.24000000	         -3.23246929	          3.86673251	          1.09772588	         10.09162620	          6.26219766	        -23.59499275	        -35.62327044	        -22.45163285	        -24.01216770	         -3.90119470	          0.05000000	          0.54749167	          0.05000000	          0.11486417	          0.06801445	          0.05000000	          0.05000000	          0.05000000	          0.25848734	          0.05586150	          0.05000000	          0.16512186	          0.05000000	          0.29330338	          0.14529977	          0.15817164	          0.19377962	          0.05000000	
          3.26000000	         -3.48478750	          3.88586052	          1.09933134	          8.75196096	          9.55177352	        -22.43728853	        -37.11262094	        -23.25846448	        -23.08652094	         -4.15059169	          0.05000000	          0.51847466	          0.05000000	          0.11701043	          0.08097906	          0.05000000	          0.05000000	          0.05000000	          0.28764253	          0.05000005	          0.05000000	          0.14626424	          0.05000000	          0.33619268	          0.13895408	          0.17186175	          0.19106020	          0.05000000	
          3.28000000	         -3.71782782	          3.90494179	          1.10019996	          7.42414244	         12.92303642	        -21.35065447	        -38.58370542	        -23.98887207	        -22.20813855	         -4.43387843	          0.05000000	          0.38885610	          0.05000000	          0.12192898	          0.12621702	          0.05000000	          0.05000000	          0.05000000	          0.31663837	          0.05000002	          0.05000000	          0.11940489	          0.05000000	          0.37291119	          0.13336648	          0.18269646	          0.18847768	          0.05000000	
          3.30000000	         -3.93794766	          3.92423440	          1.10042223	          6.12325082	         16.18410597	        -20.37062353	        -39.67060974	        -24.66487648	        -21.37770023	         -4.71697773	          0.05000000	          0.29164208	          0.05000000	          0.12758691	          0.16521010	          0.05000000	          0.05000000	          0.05000000	          0.34231563	          0.05000001	          0.05000001	          0.09458593	          0.05000000	          0.40146729	          0.12972217	          0.18960885	          0.18466066	          0.05000001	
          3.32000000	         -4.15346838	          3.94397535	          1.10006764	          4.85048720	         19.18536694	        -19.50460235	        -40.12495086	        -25.29745742	        -20.59536154	         -4.96564973	          0.05000000	          0.21873156	          0.05000000	          0.14072986	          0.19432093	          0.05000000	          0.05000000	          0.05000000	          0.36544662	          0.05000001	          0.05000001	          0.07463407	          0.05000001	          0.42665440	          0.12755475	          0.19347890	          0.17954582	          0.05000001	
          3.34000000	         -4.37396941	          3.96437207	          1.09915972	          3.58876863	         21.83486043	        -18.72540320	        -39.84941544	        -25.88958450	        -19.87238956	         -5.14693758	          0.05000000	          0.16404867	          0.05000000	          0.16529755	          0.20956924	          0.06672697	          0.05000000	          0.05000000	          0.38847953	          0.05000000	          0.05000002	          0.05746442	          0.05000001	          0.44607367	          0.12537545	          0.19677167	          0.17411701	          0.05000001	
          3.36000000	         -4.61065718	          3.98563490	          1.09770070	          2.31353361	         24.03179568	        -17.98523091	        -38.71044542	        -26.46521558	        -19.20980350	         -5.22485054	          0.05000000	          0.12303650	          0.05000000	          0.19756073	          0.22425888	          0.08003150	          0.05000000	          0.05000000	          0.41016274	          0.05000000	          0.05000002	          0.05000003	          0.05000003	          0.46492153	          0.12299036	          0.20286809	          0.16981045	          0.05000002	
